<?xml version="1.0" encoding="utf-8"?>
<!-- Generator: Adobe Illustrator 22.0.1, SVG Export Plug-In . SVG Version: 6.00 Build 0)  -->
<svg version="1.1" id="Layer_1" xmlns="http://www.w3.org/2000/svg" xmlns:xlink="http://www.w3.org/1999/xlink" x="0px" y="0px"
	 viewBox="0 0 130 130" style="enable-background:new 0 0 130 130;" xml:space="preserve">
<style type="text/css">
	.st0{fill:#20BB77;}
	.st1{font-family:'ArialMT';}
	.st2{font-size:35.0202px;}
	.st3{fill:#33D614;}
	.st4{fill:#0CBA63;}
	.st5{fill:#1D9E65;}
</style>
<g id="logo__item--business">
	<g transform="translate(687.77 431.685) scale(1.09438) rotate(0)">
		<text transform="matrix(0.9138 0 0 0.9138 -572.9054 -302.5047)" class="st0 st1 st2">CTF</text>
	</g>
</g>
<g id="logo__item--logo_0">
	<g transform="translate(612.905 338.5) scale(0.761305) rotate(0)">
		<g>
			<polygon class="st3" points="-800.6,-397.4 -764.6,-387.9 -764.6,-413.9 -800.6,-431.1 			"/>
			<polygon class="st3" points="-761.4,-333.8 -741.1,-338.7 -741.1,-357.7 -761.4,-357.2 			"/>
			<polygon class="st3" points="-761.4,-360.4 -741.1,-359.9 -741.1,-379.8 -761.4,-384.6 			"/>
			<polygon class="st3" points="-726.9,-395.9 -738.5,-401.5 -738.5,-381 -726.8,-378 			"/>
			<polygon class="st3" points="-726.8,-376.4 -738.5,-379.2 -738.5,-359.9 -726.8,-359.6 			"/>
			<polygon class="st3" points="-726.7,-340.5 -738.5,-337.4 -738.5,-317.4 -726.7,-323.1 			"/>
			<polygon class="st3" points="-726.8,-358 -738.5,-357.7 -738.5,-339.3 -726.7,-342.1 			"/>
			<polygon class="st3" points="-714.1,-375.4 -722.3,-377.3 -722.3,-363.8 -714.1,-363.6 			"/>
			<polygon class="st3" points="-701.6,-377.5 -706.8,-378.8 -706.8,-370.2 -701.6,-370.1 			"/>
			<polygon class="st3" points="-693.1,-368.7 -697.4,-369.8 -697.4,-362.6 -693.1,-362.5 			"/>
			<polygon class="st3" points="-704.7,-362.8 -711.1,-364.4 -711.1,-353.7 -704.6,-353.5 			"/>
			<polygon class="st3" points="-713.7,-359.2 -721.9,-359 -721.9,-346.1 -713.7,-348.1 			"/>
			<polygon class="st3" points="-800.6,-287.5 -764.6,-304.9 -764.6,-330.5 -800.6,-321.1 			"/>
			<polygon class="st3" points="-761.4,-306.4 -741.1,-316.2 -741.1,-336.7 -761.4,-331.4 			"/>
			<polygon class="st3" points="-761.4,-387.1 -741.1,-381.7 -741.1,-402.7 -761.4,-412.4 			"/>
			<polygon class="st4" points="-800.7,-393.9 -800.7,-361.3 -764.7,-360.5 -764.7,-385.4 			"/>
			<polygon class="st5" points="-800.7,-324.5 -764.7,-333.1 -764.7,-357.1 -800.7,-356.3 			"/>
			<polygon class="st3" points="-739.3,-306.7 -766,-293 -766,-302.2 -739.1,-314.9 			"/>
		</g>
	</g>
</g>
</svg>
